# xmcd
#
# Track frame offsets: 
#        183
#        29920
#        65008
#        98383
#        137458
#        176833
#
# Disc length: 2662 seconds
#
# Revision: 1
# Processed by: cddbd v1.5.2PL0 Copyright (c) Steve Scherf et al.
# Submitted via: ExactAudioCopy v0.99pb5
#
DISCID=4f0a6406
DTITLE=Grossman Steve  - Way Out East Vol 2
DYEAR=1984
DGENRE=Jazz
TTITLE0=Out of nowhere
TTITLE1=Body and soul
TTITLE2=Trane's slow Blues
TTITLE3=Soultrane
TTITLE4=Like someone in love
TTITLE5=Mr. Sandman
EXTD=YEAR: 1984
EXTT0=
EXTT1=
EXTT2=
EXTT3=
EXTT4=
EXTT5=
PLAYORDER=
